<svg xmlns="http://www.w3.org/2000/svg" xmlns:xlink="http://www.w3.org/1999/xlink" width="216" zoomAndPan="magnify" viewBox="0 0 162 74.999997" height="100" preserveAspectRatio="xMidYMid meet" version="1.0"><defs><g/></defs><g fill="#000000" fill-opacity="1"><g transform="translate(51.515624, 49.124995)"><g><path d="M 1.84375 -19.453125 L 7.953125 -19.453125 L 7.953125 -4.296875 L 14.703125 -4.296875 L 14.703125 0 L 1.84375 0 Z M 1.84375 -19.453125 "/></g></g></g><g fill="#000000" fill-opacity="1"><g transform="translate(66.722543, 49.124995)"><g><path d="M 1.84375 -19.453125 L 7.515625 -19.453125 L 15.265625 -8.96875 L 15.265625 -19.453125 L 20.328125 -19.453125 L 20.328125 0 L 14.671875 0 L 6.875 -10.125 L 6.875 0 L 1.84375 0 Z M 1.84375 -19.453125 "/></g></g></g><g fill="#000000" fill-opacity="1"><g transform="translate(88.882812, 49.124995)"><g><path d="M 1.84375 -19.453125 L 10.296875 -19.453125 C 12.328125 -19.453125 14.128906 -19.046875 15.703125 -18.234375 C 17.285156 -17.429688 18.515625 -16.300781 19.390625 -14.84375 C 20.265625 -13.394531 20.703125 -11.738281 20.703125 -9.875 C 20.703125 -7.90625 20.269531 -6.175781 19.40625 -4.6875 C 18.550781 -3.195312 17.335938 -2.039062 15.765625 -1.21875 C 14.191406 -0.40625 12.367188 0 10.296875 0 L 1.84375 0 Z M 10.015625 -5.09375 C 11.421875 -5.09375 12.492188 -5.539062 13.234375 -6.4375 C 13.984375 -7.332031 14.359375 -8.492188 14.359375 -9.921875 C 14.359375 -11.285156 13.992188 -12.363281 13.265625 -13.15625 C 12.546875 -13.957031 11.460938 -14.359375 10.015625 -14.359375 L 8.09375 -14.359375 L 8.09375 -5.09375 Z M 10.015625 -5.09375 "/></g></g></g></svg>