<svg xmlns="http://www.w3.org/2000/svg" xmlns:xlink="http://www.w3.org/1999/xlink" width="216" zoomAndPan="magnify" viewBox="0 0 162 74.999997" height="100" preserveAspectRatio="xMidYMid meet" version="1.0"><defs><g/></defs><g fill="#000000" fill-opacity="1"><g transform="translate(16.066408, 62.249994)"><g><path d="M 4.046875 -42.84375 L 17.5 -42.84375 L 17.5 -9.46875 L 32.375 -9.46875 L 32.375 0 L 4.046875 0 Z M 4.046875 -42.84375 "/></g></g></g><g fill="#000000" fill-opacity="1"><g transform="translate(49.563228, 62.249994)"><g><path d="M 4.046875 -42.84375 L 16.5625 -42.84375 L 33.625 -19.734375 L 33.625 -42.84375 L 44.765625 -42.84375 L 44.765625 0 L 32.3125 0 L 15.125 -22.296875 L 15.125 0 L 4.046875 0 Z M 4.046875 -42.84375 "/></g></g></g><g fill="#000000" fill-opacity="1"><g transform="translate(98.376441, 62.249994)"><g><path d="M 4.046875 -42.84375 L 22.671875 -42.84375 C 27.148438 -42.84375 31.117188 -41.945312 34.578125 -40.15625 C 38.046875 -38.375 40.742188 -35.882812 42.671875 -32.6875 C 44.609375 -29.488281 45.578125 -25.835938 45.578125 -21.734375 C 45.578125 -17.410156 44.628906 -13.609375 42.734375 -10.328125 C 40.847656 -7.054688 38.171875 -4.515625 34.703125 -2.703125 C 31.242188 -0.898438 27.234375 0 22.671875 0 L 4.046875 0 Z M 22.046875 -11.203125 C 25.160156 -11.203125 27.535156 -12.1875 29.171875 -14.15625 C 30.804688 -16.132812 31.625 -18.703125 31.625 -21.859375 C 31.625 -24.847656 30.828125 -27.222656 29.234375 -28.984375 C 27.640625 -30.742188 25.242188 -31.625 22.046875 -31.625 L 17.8125 -31.625 L 17.8125 -11.203125 Z M 22.046875 -11.203125 "/></g></g></g></svg>